<svg xmlns:xlink="http://www.w3.org/1999/xlink" class="CreationPopup__icon" xmlns="http://www.w3.org/2000/svg" viewBox="0 0 24 24" width="24"  height="24" >
          <path d="M15.548 14.007l-.006-.005-.006-.004-4.696-2.73s0 0 0 0a.736.736 0 00-.381-.113.73.73 0 00-.373.108c-.262.11-.407.371-.407.662v5.464c0 .262.155.511.398.658h0l.009.004a.899.899 0 00.352.098.88.88 0 00.314-.069l.063-.022.012-.004.012-.006 4.697-2.732h0l.001-.001a.743.743 0 00.357-.658c0-.259-.152-.505-.346-.65zM20.764 3.85h0l-.003-.004c-.534-.513-1.125-.945-1.943-1.247-.816-.301-1.85-.47-3.264-.47h-6.5c-1.394 0-2.417.169-3.233.476-.818.307-1.42.75-1.974 1.283h0l-.003.004C3.33 4.428 2.9 5.02 2.599 5.834c-.3.812-.469 1.837-.469 3.234v6.514c0 1.396.169 2.432.475 3.255.306.824.748 1.428 1.282 1.964l.002.002c.534.513 1.126.945 1.943 1.246.816.302 1.85.47 3.264.47h6.5c1.394 0 2.428-.168 3.249-.475.823-.307 1.425-.75 1.96-1.285l.001-.002c.513-.535.944-1.128 1.245-1.947.3-.817.469-1.853.469-3.27V9.068c0-1.397-.169-2.422-.475-3.24-.306-.819-.748-1.422-1.28-1.977zm-5.168-.2c1.31 0 2.174.166 2.788.41.612.244.985.567 1.314.896.466.468.897 1.045 1.149 2.216h-3.665L15.19 3.65h.406zm-6.948 0h4.734l1.991 3.522H10.64L8.648 3.65zM4.952 4.957c.435-.436.982-.87 2.065-1.12l1.897 3.336h-5.11c.25-1.17.682-1.748 1.148-2.216zm16.05 10.667c0 1.313-.167 2.178-.41 2.794-.243.613-.565.987-.894 1.316-.328.33-.712.652-1.33.896-.62.244-1.482.411-2.772.411H9.054c-1.31 0-2.174-.167-2.788-.411-.612-.243-.985-.566-1.314-.896a3.699 3.699 0 01-.893-1.332c-.244-.62-.41-1.486-.41-2.778v-6.93h17.353v6.93z" fill="#262626" stroke="#FFFFFF" stroke-width="0.25px"></path>
        </svg>