<?xml version="1.0" standalone="no"?>
<!DOCTYPE svg PUBLIC "-//W3C//DTD SVG 20010904//EN"
 "http://www.w3.org/TR/2001/REC-SVG-20010904/DTD/svg10.dtd">
<svg version="1.0" xmlns="http://www.w3.org/2000/svg"
 width="162.000000pt" height="162.000000pt" viewBox="0 0 162.000000 162.000000"
 preserveAspectRatio="xMidYMid meet">
<metadata>
Created by potrace 1.10, written by Peter Selinger 2001-2011
</metadata>
<g transform="translate(0.000000,162.000000) scale(0.100000,-0.100000)"
fill="#000000" stroke="none">
<path d="M655 1348 c-183 -34 -301 -94 -441 -225 -89 -83 -204 -266 -204 -325
0 -37 23 -61 58 -61 40 0 56 14 87 77 15 28 34 64 42 80 17 32 179 199 203
210 8 3 29 15 45 26 38 24 114 60 129 60 6 0 29 7 51 15 27 10 83 14 175 14
92 0 148 -4 175 -14 22 -8 45 -15 51 -15 15 0 91 -36 129 -60 17 -11 37 -23
45 -26 24 -11 186 -178 203 -210 8 -16 27 -52 42 -80 31 -63 47 -77 87 -77 66
0 75 58 23 157 -84 162 -226 304 -380 382 -141 71 -361 102 -520 72z"/>
<path d="M680 1023 c-80 -36 -102 -49 -139 -83 -56 -50 -91 -113 -112 -198
-18 -75 -18 -102 3 -177 25 -91 65 -151 143 -210 72 -55 119 -70 225 -70 73 0
106 5 140 20 153 66 255 226 242 377 -3 24 -38 32 -64 14 -33 -23 -129 -21
-178 4 -21 11 -54 39 -74 63 -44 54 -56 133 -33 209 10 33 11 50 4 57 -16 16
-117 12 -157 -6z"/>
</g>
</svg>
